Patient4_TMGait_0pt4_01_left_42_EMG.mot
version=1
nRows=30
nColumns=33
inDegrees=no
endheader
time	1LAddLong	2LGlutMax	3LGlutMed	4LIliopsoas	5LSemiMemb	6LBicFemLong	7LRecFem	8LVastMed	9LVastLat	10LGasMed	11LTibAnt	12lTibPost	13LPeroneusLong	14LSol	15LExtDigLong	16LFlexDigLong	17RAddLong	18RGlutMax	19RGlutMed	20RIliopsoas	21RSemiMemb	22RBicFemLong	23RRecFem	24RVastMed	25RVastLat	26RGasMed	27RTibAnt	28RTibPost	29RPeroneusLong	30RSol	31RExtDigLong	32RFlexDigLong
52.84	0.004883	-0.007935	-0.041656	-0.001221	-0.013733	0.053253	0.026093	0.004578	0.17899	-0.023651	-0.006866	0.000458	0.024567	0.041351	-0.046997	0.000305	-0.015106	0.74204	-0.26688	-0.003052	0.095367	-0.036011	-0.10056	0.18127	0.16998	-0.031128	-0.88028	-0.002899	0.090942	-0.17105	0.004425	-0.001526
52.841	-0.002441	-0.013275	-0.057526	-0.007324	-0.019836	0.036469	0.024109	0.001678	0.18799	-0.003662	-0.02533	-0.006104	0.027161	0.023346	-0.29633	-0.010223	-0.014038	0.70267	-0.032349	-0.069427	0.020599	-0.046844	-0.13321	0.12177	0.091095	-0.014801	-0.52856	0.003204	-0.055847	0.007477	0.005951	-0.003204
52.842	0.002136	-0.009613	-0.035095	-0.028229	-0.028229	0.032806	0.019684	0.006104	0.20279	-0.014191	0.009918	0.00412	0.049744	0.051422	-0.50476	-0.004883	-0.006714	0.6987	0.037231	-0.056	-0.071411	-0.018921	-0.18539	-0.001373	0.11414	-0.003967	-0.034637	0.001678	-0.13596	0.011139	-0.001526	-0.010529
52.843	0.005951	-0.00351	-0.019379	0.002136	-0.044708	0.054474	0.032501	0.00473	0.2182	0.010681	-0.050964	-0.002289	0.036469	0.003357	-0.15457	-0.015869	-0.007629	0.67413	0.18814	0.0354	-0.011597	0.002289	-0.16449	-0.011444	0.18494	0.000916	0.10056	-0.001526	-0.090637	-0.21042	0.003204	-0.001526
52.844	0.009613	-0.034637	-0.03006	0.011292	-0.049286	0.060272	0.026855	0.002594	0.21683	0.017548	-0.068512	-0.000458	0.016174	-0.11887	-0.12695	0.012207	-0.003204	0.71426	0.40497	0.059357	0.000305	0.042572	-0.04715	-0.037994	0.13367	0.004425	0.12451	0.000458	-0.035858	-0.22553	0.002441	-0.001373
52.845	0.010223	-0.032806	0.00946	0.009613	-0.046539	0.030365	0.027161	0.002747	0.24582	-0.011139	-0.040436	0.005341	0.01358	-0.17609	0.027161	-0.014648	0.00824	0.62195	0.46539	0.010681	-0.004578	0.026093	0.23514	-0.029755	0.026855	0.00061	0.18829	-0.002899	-0.034027	-0.13123	0.002594	-0.011597
52.846	0.000153	-0.035553	0.089874	0.014038	-0.037689	0.003967	0.02655	-0.001526	0.2449	-0.066376	0.008545	-0.002136	0.042419	-0.052795	0.015564	0.000305	0.015259	0.69076	0.30701	-0.050964	-0.002136	0.019989	0.55222	0.017395	0	-0.015106	0.1413	-0.003052	-0.097351	-0.13519	-0.003357	-0.007782
52.847	0.009613	-0.042267	0.062714	0.003662	0.006866	-0.005951	0.022583	0.003052	0.25101	-0.046692	0.11261	0.012512	-0.005188	0.041504	0.026703	-0.007782	0.018768	0.67688	0.37079	-0.091095	-0.003052	0.028229	0.54123	0.002747	-0.077209	-0.016479	-0.095367	-0.002747	-0.079803	-0.22766	0.000763	-0.003052
52.848	0.010376	-0.048981	-0.00351	0.009918	-0.011749	-0.003967	0.011597	0.002289	0.25421	-0.024567	0.064697	0.005035	0.008545	0.027924	0.049744	-0.011749	0.012817	0.63232	0.25971	-0.11215	0.018616	0.049286	0.4924	-0.10956	-0.10452	-0.030212	0.000153	-0.004425	-0.090637	-0.23422	0.000916	-0.00824
52.849	0.010071	-0.018311	-0.069733	0.009308	0.006714	-0.016785	0.020599	0.002594	0.26291	-0.020447	0.034637	0.005951	0.013428	-0.050964	0.027161	-0.002289	0.00824	0.54108	0.18784	-0.036774	0.007935	0.046234	0.24933	-0.22476	-0.13916	-0.027771	0.19226	-0.009155	0.010986	-0.15564	0.001984	-0.019226
52.85	0.001831	-0.032501	-0.087891	0.011597	0.014954	-0.00946	0.024567	0.000458	0.26047	-0.019531	0.020447	0.003662	0.020294	-0.041351	0.045776	0.005341	-0.009308	0.4306	0.22492	0.031891	-0.035095	0.068817	-0.32333	-0.33005	-0.085602	-0.002136	0.26199	-0.005188	0.088501	-0.13397	0.001984	-0.011139
52.851	0.010529	0.010376	-0.015869	0.011139	-0.004425	0.001678	0.032959	0.000916	0.24857	-0.002747	0.012054	0.003815	0.016937	-0.029297	0.079346	0.001984	-0.00885	0.36591	0.21637	0.093079	-0.081177	0.058899	-0.26169	-0.29098	-0.075684	0.018463	-0.32394	-0.00412	0.26138	-0.17197	-0.00061	-0.008698
52.852	-0.00061	0.034027	-0.018768	0.017548	-0.019379	0.006561	0.018005	-0.001984	0.2449	0.007019	0.009613	-0.00061	0.002747	-0.008698	0.08255	0.005951	0.000763	0.27634	0.26932	0.029602	0.034485	0.0177	-0.2475	-0.21286	-0.014801	0.013428	-0.65109	-0.002289	0.26199	0.032501	-0.000916	-0.005646
52.853	0.013733	0.027313	0.016632	0.005188	-0.021973	0.001221	0.032349	0.002441	0.23377	-0.000458	0.0177	-0.005646	0.027008	-0.01358	0.044098	-0.006866	0.003052	0.13534	0.36728	-0.011597	0.044403	0.021057	-0.18875	-0.12756	0.059509	-0.015259	-0.29282	-0.003357	-0.093536	0.12085	0.001984	-0.011597
52.854	0.007782	0.040131	-0.028992	-0.004883	-0.043335	-0.006256	0.02121	-0.001068	0.233	-0.009766	0.024567	-0.002899	0.039825	-0.038452	0.015717	-0.004272	-0.016022	0.0737	0.23315	0.015717	0.020294	0.04364	-0.18784	0.006409	0.15182	-0.019531	0.37888	-0.008698	-0.35751	0.036316	0.004272	-0.020142
52.855	0.009308	0.037994	0	-0.016785	-0.034637	-0.017395	0.017853	0.006561	0.22751	-0.019226	0.019836	0.009308	0.033264	-0.002441	0.025787	0.002136	-0.018768	0.002289	0.24185	0.006866	0.026245	0.037994	-0.063782	0.15625	0.066986	-0.010681	0.58792	-0.000305	-0.15854	-0.16632	0.002136	-0.003967
52.856	0.01358	0.052643	0.001068	-0.003052	-0.046234	-0.031433	0.006561	-0.000763	0.22797	-0.023804	0.019073	0.002136	0.035858	-0.015869	0.029602	-0.001678	-0.008545	-0.077209	0.19119	0.027924	0.049591	0.033112	0.079346	0.24643	0.11459	-0.011444	0.3923	-0.005188	0.017242	-0.13794	0.001068	-0.011139
52.857	0.01297	0.054779	0.012665	-0.010529	-0.024872	-0.020599	0.012665	0.001373	0.22003	-0.033569	0.0177	0.001068	0.05249	-0.080261	0.035095	-0.001373	-0.001678	-0.10346	0.15198	0.11597	0.038147	0.002747	-0.06897	0.20294	0.19089	-0.01358	0.039673	-0.004578	0.063171	-0.09552	0.00061	-0.001068
52.858	0.008392	0.040741	-0.019073	-0.001526	-0.00946	0.04425	0.006409	-0.002289	0.22263	-0.017853	0.013885	0.001831	0.044098	-0.077057	0.036011	0.001221	0.01236	-0.23529	0.12604	0.085754	0.06134	-0.005493	-0.092621	0.22079	0.17944	-0.007629	-0.29831	-0.007477	0.25452	0.068359	0.000916	0.002136
52.859	0.006866	0.041809	-0.056763	0.032806	-0.026245	0.023193	0.021973	0.004272	0.2121	-0.017242	0.015869	0.002289	0.028839	-0.029755	0.027008	-0.007629	0.032654	-0.24704	0.12177	0.039368	0.045013	-0.018768	-0.045166	0.15228	0.15305	0.003357	-0.61188	-0.002289	0.41916	0.13229	-0.003357	-0.006866
52.86	0.009766	0.07843	-0.06958	0.017242	-0.009918	0.035553	0.026398	0.008545	0.20798	-0.003967	0.012512	0.011444	-0.005341	-0.02121	0.017853	-0.00885	0.018616	-0.32425	0.37003	-0.041351	-0.012665	0.011902	-0.16739	0.085144	0.11337	0.003204	-1.3304	-0.009766	0.23209	-0.25269	-0.00061	-0.004578
52.861	0.002289	0.074615	-0.099182	-0.006714	-0.037994	0.049133	0.023651	0.005035	0.20569	0.005035	0.022736	0.00946	-0.007782	-0.066681	0.018311	-0.001984	-0.006714	-0.3595	0.38605	-0.010681	-0.026855	0.053253	-0.29724	0.051422	-0.001221	0.004272	-0.71564	-0.023193	0.073395	-0.41885	-0.000305	-0.00946
52.862	0.010834	0.072479	-0.046692	-0.002899	-0.03891	0.044098	0.017853	0.003967	0.20828	0.00824	0.01297	0.006256	-0.036163	-0.090027	0.019684	0.007172	-0.010376	-0.39978	0.22217	-0.028687	0.002899	0.034943	-0.28198	-0.024414	0.015411	0.002747	-0.097351	-0.022278	0.059967	-0.062408	-0.001068	0.002899
52.863	0.020447	0.06073	-0.007935	-0.003357	-0.028839	0.027466	0.037384	0.005493	0.20523	-0.007019	0.005035	0.009918	0.011902	-0.10178	0.020142	0.003815	-0.000305	-0.39566	0.023804	-0.022736	0.000763	0.018616	-0.1416	-0.017242	-0.021667	0.005646	0.1506	-0.02243	0.035553	0.060425	0.000916	-0.002899
52.864	0.011444	0.10284	0.015411	0.021667	-0.028381	-0.023346	0.046692	0.00473	0.21027	-0.0177	0.009308	0.00473	0.024719	-0.097504	0.011444	0.001221	0.017548	-0.4071	0.21408	-0.020905	0.008698	-0.004425	0.016327	-0.005951	-0.020142	0.011749	0.47867	-0.005188	-0.15945	-0.036163	0.008545	-0.014801
52.865	0.004272	0.10025	-0.011139	0.016174	-0.029449	-0.00473	0.037842	-0.003967	0.20523	-0.018311	-0.001526	0.002899	0.02182	-0.095215	0.003204	0.012665	0.001526	-0.45853	0.27634	-0.03479	0.00351	0.008698	0.097351	-0.043182	-0.072327	0.000763	0.58762	0.042419	-0.28122	-0.090027	0.000458	-0.008698
52.866	-0.00412	0.10437	-0.13718	0.019836	-0.039673	-0.013123	0.03006	0.003357	0.19974	-0.023499	0.005951	0.005646	0.018463	-0.02655	0.001373	0.005341	0.003967	-0.51483	0.39948	-0.042114	-0.001678	0.009155	0.3627	-0.083313	0.13473	0.010376	0.39337	0.007172	-0.17014	0.27802	0.00061	-0.011597
52.867	-0.004578	0.093994	-0.13473	0.017395	-0.03067	-0.021973	0.033875	0.005341	0.19821	-0.035095	0.001526	0.002899	0.022736	0.031433	-0.003815	-0.004883	0.007477	-0.6279	0.066376	-0.046539	-0.027771	0.014496	0.448	-0.085449	0.30167	-0.040894	0.06424	-0.009308	0.055237	0.87067	-0.000916	-0.008087
52.868	0.00824	0.10193	-0.078735	-0.003967	0.048981	-0.033722	0.019989	0.006104	0.18112	-0.036469	0.015259	0.003815	0.033569	0.007324	-0.001373	-0.002747	0.011597	-0.66681	-0.29083	-0.024414	-0.01709	0.028687	0.37781	-0.10056	0.29999	-0.1416	-0.068054	-0.017395	0.048218	0.65674	-0.000458	-0.014496
52.869	0.009155	0.1236	0.068207	0.010223	0.022278	0.011749	0.026093	-0.001526	0.1915	-0.032959	0.008545	0.006104	0.024872	-0.029297	-0.005798	0.000763	0.018311	-0.63217	-0.16846	-0.092163	-0.014496	0.012817	0.28595	-0.1355	0.16434	-0.050049	-0.040436	-0.024109	0.215	0.33493	-0.001984	-0.015564
